<svg width="59" height="59" viewBox="0 0 59 59" fill="none" xmlns="http://www.w3.org/2000/svg">
<path fill-rule="evenodd" clip-rule="evenodd" d="M24.686 22.5C19.2394 25.6445 27.5497 41.224 33.5097 37.783C34.5681 39.6162 37.9773 45.5211 39.0357 47.3542C36.5211 48.8061 34.3925 49.7213 31.4772 48.0547C23.3826 43.4274 14.4722 28.0007 14.7262 18.7987C14.8142 15.6027 16.6972 14.3505 19.1602 12.9285C20.2186 14.7617 23.6276 20.6668 24.686 22.5Z" fill="white"/>
<path fill-rule="evenodd" clip-rule="evenodd" d="M26.97 22.24C26.3815 22.5798 25.6242 22.377 25.2844 21.7884L20.0749 12.7652C19.7351 12.1766 19.9379 11.4193 20.5264 11.0795L23.2644 9.49872C23.853 9.15888 24.6104 9.36187 24.9502 9.95042L30.1597 18.9735C30.4995 19.562 30.2966 20.3193 29.7081 20.6591L26.97 22.24Z" fill="white"/>
<path fill-rule="evenodd" clip-rule="evenodd" d="M41.202 46.89C40.6135 47.2298 39.8562 47.027 39.5164 46.4384L34.3069 37.4152C33.9671 36.8266 34.1699 36.0693 34.7584 35.7296L37.4964 34.1488C38.085 33.809 38.8424 34.012 39.1822 34.6005L44.3917 43.6236C44.7315 44.2121 44.5286 44.9695 43.9401 45.3092L41.202 46.89Z" fill="white"/>
<path d="M29.641 0L29.6414 0.006787C37.6914 0.0069104 44.9764 3.26679 50.2454 8.53639C55.5147 13.8057 58.7745 21.0904 58.7747 29.1404H58.7815V29.1417H58.7747C58.7746 37.1917 55.5147 44.4767 50.2451 49.7457C44.9757 55.015 37.6911 58.2748 29.6411 58.275V58.2818H29.6398V58.275C21.5898 58.2749 14.3048 55.015 9.03578 49.7454C3.76648 44.476 0.506682 37.1914 0.506482 29.1414H0.499695V29.1401H0.506482C0.506605 21.0901 3.76648 13.8051 9.03608 8.53609C14.3054 3.26679 21.5901 0.006987 29.6401 0.006787L29.641 0ZM29.6414 3.4758V3.48259H29.6401V3.4758C22.5609 3.47599 16.1461 6.3511 11.4991 10.9984C6.85138 15.646 3.97618 22.0614 3.97618 29.1404H3.98297V29.1418H3.97618C3.97637 36.221 6.85148 42.6358 11.4988 47.2828C16.1464 51.9305 22.5618 54.8057 29.6408 54.8057V54.7989H29.6421V54.8057C36.7213 54.8055 43.1361 51.9304 47.7831 47.2831C52.4308 42.6355 55.306 36.2201 55.306 29.1411H55.2993V29.1397H55.306C55.3059 22.0605 52.4307 15.6457 47.7834 10.9987C43.1358 6.351 36.7204 3.4758 29.6414 3.4758Z" fill="white"/>
</svg>
